HIERARCHY
ROOT Pelvis
{
	OFFSET 0.000000 0.000000 0.000000
	CHANNELS 6 Xposition Yposition Zposition Zrotation Yrotation Xrotation 
	JOINT Left_hip
	{
		OFFSET 0.067986 -0.089946 -0.007639
		CHANNELS 3 Zrotation Yrotation Xrotation
		JOINT Left_knee
		{
			OFFSET 0.036308 -0.388288 -0.004016
			CHANNELS 3 Zrotation Yrotation Xrotation
			JOINT Left_ankle
			{
				OFFSET -0.012264 -0.413250 -0.042878
				CHANNELS 3 Zrotation Yrotation Xrotation
				JOINT Left_foot
				{
					OFFSET 0.024043 -0.058563 0.118570
					CHANNELS 3 Zrotation Yrotation Xrotation
					End Site
					{
						OFFSET 0.000000 0.000000 0.000000
					}
				}
			}
		}
	}
	JOINT Right_hip
	{
		OFFSET -0.065648 -0.089374 -0.003858
		CHANNELS 3 Zrotation Yrotation Xrotation
		JOINT Right_knee
		{
			OFFSET -0.042132 -0.395021 -0.006361
			CHANNELS 3 Zrotation Yrotation Xrotation
			JOINT Right_ankle
			{
				OFFSET 0.014805 -0.413264 -0.041054
				CHANNELS 3 Zrotation Yrotation Xrotation
				JOINT Right_foot
				{
					OFFSET -0.021758 -0.049013 0.121832
					CHANNELS 3 Zrotation Yrotation Xrotation
					End Site
					{
						OFFSET 0.000000 0.000000 0.000000
					}
				}
			}
		}
	}
	JOINT Spine1
	{
		OFFSET -0.002755 0.104406 -0.022277
		CHANNELS 3 Zrotation Yrotation Xrotation
		JOINT Spine2
		{
			OFFSET 0.004136 0.129393 -0.002186
			CHANNELS 3 Zrotation Yrotation Xrotation
			JOINT Spine3
			{
				OFFSET 0.001906 0.049304 0.025578
				CHANNELS 3 Zrotation Yrotation Xrotation
				JOINT Neck
				{
					OFFSET -0.004620 0.210958 -0.044063
					CHANNELS 3 Zrotation Yrotation Xrotation
					JOINT Head
					{
						OFFSET 0.003833 0.067393 0.052435
						CHANNELS 3 Zrotation Yrotation Xrotation
						End Site
						{
							OFFSET 0.000000 0.000000 0.000000
						}
					}
				}
				JOINT Left_collar
				{
					OFFSET 0.070771 0.116689 -0.037192
					CHANNELS 3 Zrotation Yrotation Xrotation
					JOINT Left_shoulder
					{
						OFFSET 0.080652 0.031596 -0.005617
						CHANNELS 3 Zrotation Yrotation Xrotation
						JOINT Left_elbow
						{
							OFFSET 0.262654 -0.015020 -0.027939
							CHANNELS 3 Zrotation Yrotation Xrotation
							JOINT Left_wrist
							{
								OFFSET 0.250438 0.010062 -0.000990
								CHANNELS 3 Zrotation Yrotation Xrotation
								JOINT Left_palm
								{
									OFFSET 0.081198 -0.010037 -0.013706
									CHANNELS 3 Zrotation Yrotation Xrotation
									End Site
									{
										OFFSET 0.000000 0.000000 0.000000
									}
								}
							}
						}
					}
				}
				JOINT Right_collar
				{
					OFFSET -0.072972 0.115556 -0.040762
					CHANNELS 3 Zrotation Yrotation Xrotation
					JOINT Right_shoulder
					{
						OFFSET -0.082917 0.031841 -0.006673
						CHANNELS 3 Zrotation Yrotation Xrotation
						JOINT Right_elbow
						{
							OFFSET -0.252882 -0.013790 -0.020410
							CHANNELS 3 Zrotation Yrotation Xrotation
							JOINT Right_wrist
							{
								OFFSET -0.255570 0.009163 -0.005138
								CHANNELS 3 Zrotation Yrotation Xrotation
								JOINT Right_palm
								{
									OFFSET -0.080804 -0.007282 -0.010415
									CHANNELS 3 Zrotation Yrotation Xrotation
									End Site
									{
										OFFSET 0.000000 0.000000 0.000000
									}
								}
							}
						}
					}
				}
			}
		}
	}
}
MOTION
Frames: 12
Frame Time: 0.100000
0.051685 0.010054 -0.017218 179.670991 8.413304 -14.643588 9.792787 5.301030 -1.808562 -5.273550 -3.740470 14.262472 -6.828653 9.185211 -10.166883 6.593238 6.328747 -3.601524 -4.774873 -4.782346 1.262822 8.610410 3.698429 2.086429 7.115480 -0.920104 -8.405811 -3.632948 -0.767208 3.731871 6.170717 0.608303 14.593691 3.396094 -2.041042 4.926216 3.716629 -0.137618 -0.035623 0.491636 5.954769 -6.444372 -2.683300 2.616782 -6.327109 -24.277550 -2.553726 1.492153 -44.186060 -1.247188 11.823239 -7.214772 -39.741657 24.735629 -2.911604 -6.828730 5.572498 -8.555249 -3.508207 -12.535108 21.410919 8.038481 2.989931 32.597500 9.333706 10.331815 4.866775 39.473967 17.196059 0.257840 5.595032 9.738871 10.553358 7.072835 -7.415911 
0.028319 0.011019 -0.029546 179.202692 8.073668 -13.831824 8.806315 5.728237 -2.100047 -5.544363 -2.951129 12.027820 -6.327386 8.996792 -10.099573 5.791422 6.056592 -2.110264 -5.460942 -4.413241 -0.679357 7.779245 3.154944 2.438951 7.670684 -0.855338 -7.219666 -3.262038 -0.189112 3.959301 6.221452 0.378753 16.125111 3.904174 -1.828614 5.064955 4.076052 0.187280 -0.548294 0.849465 6.970869 -8.228438 -2.884662 2.273691 -6.453022 -25.056584 -4.251045 1.774100 -43.150973 -1.806530 12.774580 -7.717708 -38.969568 25.957229 -3.274869 -6.775790 7.359026 -8.673946 -3.737167 -13.256130 23.779522 10.696218 3.815746 31.944439 12.202579 9.419963 4.067552 30.037280 12.981972 0.307389 4.288906 10.932065 10.584272 7.129504 -8.115774 
0.006079 0.013194 -0.052551 179.058131 7.619858 -11.421609 7.026102 6.038515 -4.805595 -5.655473 -1.821295 9.740182 -5.594417 8.661889 -9.418919 5.600120 6.177965 -0.981654 -5.720116 -3.660662 -7.073319 6.117900 2.312349 6.298995 10.138982 -1.944393 -5.369765 -6.686719 1.737522 2.094235 5.352838 0.153493 19.317276 3.729812 -1.536217 4.469073 4.274697 0.479586 -0.918197 -0.027678 8.724035 -12.977246 -2.418666 2.084135 -8.685915 -24.002200 -7.687378 1.865121 -42.365099 -3.081818 13.127063 -7.863318 -37.097131 26.864053 -1.808357 -6.085717 10.515263 -9.183782 -4.565710 -14.509833 24.382749 14.263724 4.261365 33.990364 14.668043 9.248461 2.717175 23.450875 10.456842 -0.445385 3.074165 13.933396 11.033784 7.716953 -9.540466 
-0.016173 0.019230 -0.077080 179.196452 7.444376 -9.011073 4.895991 5.446205 -8.826160 -6.023225 -0.719358 9.609299 -3.515985 8.214174 -9.619465 4.250984 7.455430 -0.556675 -7.380929 -4.224797 -13.317727 5.795782 0.935076 9.939468 13.064768 -1.777878 -3.632327 -9.963218 3.235168 0.182060 5.359942 0.590831 23.048031 3.036648 -0.940848 4.511971 4.139788 1.053367 -1.344909 -2.221133 8.569556 -16.972788 -1.525958 1.414920 -12.215164 -23.648065 -11.841737 1.685706 -41.184914 -5.757694 12.703790 -7.040109 -37.775461 24.286509 0.355817 -6.125979 12.246042 -10.212593 -5.387894 -14.194228 24.421247 16.866376 5.686353 34.513975 13.330324 9.715880 2.101168 28.745976 10.432920 -2.064987 4.274947 15.506525 12.248407 8.914389 -10.710068 
-0.040174 0.022525 -0.092627 179.440162 5.735134 -7.928064 3.580040 5.830880 -9.228386 -7.062299 0.825888 6.956897 -1.541366 8.296575 -9.662691 3.144333 7.447773 -0.227023 -9.446572 -6.758302 -17.995991 6.684375 -1.998377 13.734157 16.521946 0.370219 -0.221773 -12.184591 3.558098 -1.852403 5.287700 1.269160 24.642776 2.731827 0.761544 5.410880 4.420448 2.235581 -1.102822 -2.887797 8.080819 -17.464736 -0.490339 1.626995 -13.732991 -22.275890 -11.739723 0.961362 -43.956279 -6.415395 14.341615 -6.937763 -46.589324 25.566866 4.249168 -5.891113 8.559368 -11.497307 -6.170280 -13.171330 24.102242 17.916940 7.332053 35.493217 13.739769 8.474228 1.279987 26.359289 7.589157 -4.224833 3.626115 17.303546 13.627687 9.958883 -12.392545 
-0.065071 0.023907 -0.096237 179.673026 2.874722 -9.147083 2.668571 6.433872 -5.763287 -7.758428 1.809428 3.787797 0.197580 9.196961 -10.643199 2.657997 6.047468 0.306742 -11.897132 -11.505341 -20.683101 8.167516 -9.980598 19.151075 20.076102 -0.179952 3.684490 -14.164134 3.626845 -3.477836 5.397396 2.017230 24.624185 3.790821 2.349294 6.353432 5.255810 3.184549 -0.773824 -3.528688 8.496635 -16.003226 -1.482936 1.934913 -11.886658 -21.252930 -9.671973 0.834312 -47.814644 -5.162791 16.793946 -12.933830 -52.677371 35.206399 3.067323 -5.376197 6.098002 -12.790700 -7.403738 -13.603247 25.538652 16.699885 8.529144 35.020466 14.158262 5.185710 -1.988140 20.321978 2.216243 -3.962329 2.011475 21.981991 14.938266 11.049097 -14.146484 
-0.090950 0.024096 -0.084571 -179.688419 2.805870 -13.268248 1.488689 7.847804 1.675637 -8.894926 -0.024953 0.867747 1.439944 9.217348 -11.987436 1.870920 5.593380 0.104313 -16.743269 -14.819164 -17.084781 9.768769 -12.798385 22.862518 22.492649 -0.186174 6.680765 -14.670430 3.994260 -4.499410 6.738124 1.498629 23.014065 5.211216 2.417641 8.393232 5.512356 3.188311 -0.950348 -3.788301 7.744993 -13.001109 -3.625912 1.897734 -9.685666 -22.213125 -7.755975 1.908503 -48.156147 -2.817234 18.415263 -22.971844 -55.585960 48.761326 -0.983728 -5.759896 7.232445 -14.583554 -8.029697 -15.208570 27.716714 14.668284 9.616622 31.657708 11.767398 2.868715 -2.363825 18.525309 -0.883020 -2.349362 1.014291 24.976723 16.378318 11.838530 -15.572893 
-0.114688 0.026115 -0.071131 -178.615740 1.795771 -18.178642 0.298107 9.374435 9.128020 -9.480272 -1.891246 0.022351 2.860843 10.050529 -13.989872 1.180941 6.106933 -0.769823 -21.371911 -15.829923 -13.757796 10.363938 -12.144387 27.570291 24.894232 -1.017890 9.124873 -16.399601 5.225259 -6.592722 8.097408 0.787798 20.934534 6.184149 2.854478 9.832856 5.266434 3.154570 -0.709128 -3.420953 6.684204 -9.650213 -5.805034 2.175724 -6.187732 -23.528728 -5.176913 2.390837 -47.922532 -1.157452 18.471308 -28.250652 -55.972774 53.820122 -2.546148 -5.549512 7.044022 -16.506814 -8.678792 -16.224889 29.115214 12.249686 9.558277 28.405677 9.526297 1.890258 -2.730460 20.816566 -5.414542 -2.495502 0.884838 25.134874 17.983145 12.567039 -16.752533 
-0.131348 0.026062 -0.058872 -178.299122 0.724086 -22.441520 -0.222968 10.266415 14.612664 -9.258742 -3.034506 0.726545 3.843081 11.382110 -15.645010 0.375494 6.268473 -1.261158 -23.286048 -15.081564 -10.493695 10.143098 -10.031611 29.920884 24.842795 -1.866161 9.710621 -16.181246 5.775179 -7.626869 9.453620 0.281033 18.371376 7.383127 3.212173 10.654662 5.488793 3.235761 -0.312479 -2.316315 5.128956 -5.852336 -6.946444 2.655931 -2.704266 -24.550342 -3.238697 2.292312 -48.962310 -1.283786 17.733932 -25.782576 -54.344538 49.387276 -3.735513 -4.668597 4.392215 -16.548159 -8.406981 -15.193418 29.681138 10.793389 9.297891 25.586139 8.977673 1.570257 -2.166530 19.994072 -7.193066 -1.757047 -0.161114 24.924596 17.559208 12.241327 -16.412197 
-0.142198 0.025891 -0.049794 -178.742165 0.493656 -25.733204 0.046781 10.649233 17.829713 -9.147125 -3.882451 3.011221 4.062194 12.504360 -17.583895 0.171497 5.706677 -0.919475 -24.030174 -13.971275 -7.195825 10.226137 -8.052126 30.774454 24.149260 -2.287204 9.010719 -15.329883 6.086064 -7.473984 10.164091 0.082965 15.911840 9.054247 2.548119 11.262411 6.049739 3.037446 -0.347525 -1.038738 3.816317 -3.497287 -7.398404 2.088733 -0.296448 -25.426399 -3.221062 2.834352 -48.161216 -1.334600 17.582650 -25.416865 -52.329604 48.394891 -3.840553 -4.636339 4.819681 -16.751228 -8.289210 -15.168523 30.944949 10.460947 9.478752 22.717516 8.263517 1.631187 -1.121961 19.134380 -6.299190 -1.738601 -0.187092 25.675623 17.154790 11.972031 -16.168988 
-0.151719 0.027755 -0.044993 -178.345229 -1.199541 -28.460655 0.170883 11.562408 21.709509 -9.224906 -4.360930 2.482591 4.196651 13.463206 -18.393791 0.148791 5.622490 -0.680053 -24.637372 -13.049541 -6.347959 10.044457 -6.891313 33.118383 24.115607 -3.064901 9.605455 -15.213234 6.564267 -8.125805 10.522545 -0.511242 14.706580 9.756842 2.347479 12.088233 6.113733 2.938753 -0.317163 -0.349190 3.485249 -2.012478 -8.105646 2.168323 0.931351 -25.568157 -3.204937 3.289863 -47.426116 -0.961211 17.279732 -25.634650 -50.529368 47.665503 -5.040395 -4.479576 4.493318 -16.643697 -8.248936 -15.481261 31.295479 10.819115 9.385579 21.355003 9.067696 1.536232 -0.613978 18.133850 -6.460533 -1.522621 -0.689983 26.558958 16.932138 11.856842 -16.327303 
-0.157928 0.028309 -0.043785 -178.170816 -2.247130 -29.670054 0.115423 12.206646 23.166464 -9.116607 -4.339869 2.514174 4.201031 13.816054 -18.698700 0.122489 5.678601 -0.743893 -24.758210 -12.603232 -6.072530 9.867058 -6.105372 33.780159 24.345131 -3.464775 10.216662 -15.414729 6.762521 -8.562019 10.931548 -0.994557 13.951942 10.049431 2.122613 12.287510 6.146894 2.755900 -0.357231 -0.087409 3.312831 -1.528748 -8.628339 2.634340 1.182175 -25.877740 -3.124280 3.438713 -47.409194 -0.548901 17.120280 -25.296481 -48.675443 48.168306 -4.869387 -4.318553 6.900545 -16.712013 -8.382924 -16.287893 31.270206 10.908276 9.101849 20.422098 9.506416 1.583166 0.324449 17.867446 -4.989547 -1.537655 -0.648104 27.955823 16.815419 11.768141 -16.350286 
